<svg width="16" height="16" viewBox="0 0 16 16" fill="none" xmlns="http://www.w3.org/2000/svg">
<path fill-rule="evenodd" clip-rule="evenodd" d="M14.9999 8.00014C14.9999 7.86753 14.9472 7.74036 14.8535 7.64659C14.7597 7.55282 14.6325 7.50014 14.4999 7.50014H2.70692L5.85392 4.35414C5.9004 4.30766 5.93728 4.25247 5.96244 4.19173C5.9876 4.13099 6.00055 4.06589 6.00055 4.00014C6.00055 3.9344 5.9876 3.8693 5.96244 3.80856C5.93728 3.74782 5.9004 3.69263 5.85392 3.64614C5.80743 3.59966 5.75224 3.56278 5.6915 3.53762C5.63076 3.51246 5.56566 3.49951 5.49992 3.49951C5.43417 3.49951 5.36907 3.51246 5.30833 3.53762C5.24759 3.56278 5.1924 3.59966 5.14592 3.64614L1.14592 7.64614C1.09935 7.69259 1.06241 7.74776 1.0372 7.80851C1.012 7.86926 0.999023 7.93438 0.999023 8.00014C0.999023 8.06591 1.012 8.13103 1.0372 8.19178C1.06241 8.25252 1.09935 8.3077 1.14592 8.35414L5.14592 12.3541C5.1924 12.4006 5.24759 12.4375 5.30833 12.4627C5.36907 12.4878 5.43417 12.5008 5.49992 12.5008C5.56566 12.5008 5.63076 12.4878 5.6915 12.4627C5.75224 12.4375 5.80743 12.4006 5.85392 12.3541C5.9004 12.3077 5.93728 12.2525 5.96244 12.1917C5.9876 12.131 6.00055 12.0659 6.00055 12.0001C6.00055 11.9344 5.9876 11.8693 5.96244 11.8086C5.93728 11.7478 5.9004 11.6926 5.85392 11.6461L2.70692 8.50014H14.4999C14.6325 8.50014 14.7597 8.44746 14.8535 8.3537C14.9472 8.25993 14.9999 8.13275 14.9999 8.00014Z" fill="#21272A"/>
</svg>
